# xmcd
#
# Track frame offsets: 
#        150
#        20717
#        37317
#        58255
#        79825
#        102322
#        124835
#        143835
#        170950
#        191237
#
# Disc length: 2760 seconds
#
# Revision: 0
# Processed by: cddbd v1.5.2PL0 Copyright (c) Steve Scherf et al.
# Submitted via: ExactAudioCopy v1.0b3
#
DISCID=9d0ac60a
DTITLE=Tuan Vu, Phuong Mai - Thanh Pho Sau Lung
DYEAR=1992
DGENRE=
TTITLE0=Tuan Vu - Tinh bo vo
TTITLE1=Trom nhin nhau
TTITLE2=Tuan Vu - Dau chan ky niem
TTITLE3=Phuong Mai - Gap nhau lam ngo
TTITLE4=Tuan Vu - Xin anh giu tron tinh que
TTITLE5=Phuong Mai - Nua dem ngoai pho
TTITLE6=Tuan Vu - Duyen kiep
TTITLE7=Bien man
TTITLE8=Tuan Vu - Tam su nang Buram
TTITLE9=Tuan Vu - Noi buon dem dong
EXTD=
EXTT0=
EXTT1=
EXTT2=
EXTT3=
EXTT4=
EXTT5=
EXTT6=
EXTT7=
EXTT8=
EXTT9=
PLAYORDER=
